<svg width="18" height="18" viewBox="0 0 18 18" fill="none" xmlns="http://www.w3.org/2000/svg">
<path d="M12.7867 17H5.21326C2.88296 17 1 15.117 1 12.7867V5.21326C1 2.88296 2.88296 1 5.21326 1H12.7867C15.117 1 17 2.88296 17 5.21326V12.7867C17 15.1066 15.1066 17 12.7867 17Z" stroke="white" stroke-width="1.2" stroke-miterlimit="10"/>
<path d="M14 5C14.5523 5 15 4.55228 15 4C15 3.44772 14.5523 3 14 3C13.4477 3 13 3.44772 13 4C13 4.55228 13.4477 5 14 5Z" fill="white"/>
<path d="M9 13C11.2091 13 13 11.2091 13 9C13 6.79086 11.2091 5 9 5C6.79086 5 5 6.79086 5 9C5 11.2091 6.79086 13 9 13Z" stroke="white" stroke-width="1.2" stroke-miterlimit="10"/>
</svg>
