<svg width="25" height="25" viewBox="0 0 25 25" fill="none" xmlns="http://www.w3.org/2000/svg">
<path d="M18.98 14.8909C18.4879 14.3785 17.8943 14.1045 17.2652 14.1045C16.6412 14.1045 16.0425 14.3734 15.5301 14.8858L13.927 16.4839C13.795 16.4129 13.6631 16.3469 13.5363 16.281C13.3537 16.1897 13.1812 16.1034 13.034 16.0121C11.5323 15.0583 10.1676 13.8153 8.85867 12.2071C8.2245 11.4055 7.79834 10.7307 7.48886 10.0458C7.90488 9.66533 8.29045 9.26961 8.66588 8.88911C8.80794 8.74706 8.94999 8.59993 9.09204 8.45787C10.1574 7.39247 10.1574 6.01252 9.09204 4.94711L7.70702 3.56208C7.54974 3.40481 7.38739 3.24246 7.23519 3.08011C6.93079 2.76557 6.61117 2.44087 6.2814 2.13647C5.78929 1.64943 5.20078 1.39069 4.58183 1.39069C3.96288 1.39069 3.36422 1.64943 2.85688 2.13647C2.85181 2.14154 2.85181 2.14154 2.84674 2.14662L1.1218 3.88678C0.472405 4.53617 0.10205 5.32761 0.0208761 6.24589C-0.100885 7.72731 0.335424 9.10726 0.670266 10.0103C1.49215 12.2274 2.7199 14.2821 4.55139 16.4839C6.77352 19.1373 9.44718 21.2326 12.5013 22.7089C13.6682 23.2619 15.2257 23.9164 16.9659 24.028C17.0724 24.0331 17.1841 24.0382 17.2855 24.0382C18.4575 24.0382 19.4417 23.6171 20.2128 22.78C20.2179 22.7698 20.2281 22.7647 20.2331 22.7546C20.497 22.435 20.8014 22.1458 21.121 21.8363C21.3391 21.6283 21.5624 21.4102 21.7805 21.1819C22.2828 20.6593 22.5466 20.0505 22.5466 19.4265C22.5466 18.7974 22.2777 18.1936 21.7653 17.6863L18.98 14.8909ZM20.7963 20.2331C20.7912 20.2331 20.7912 20.2382 20.7963 20.2331C20.5984 20.4462 20.3955 20.639 20.1773 20.8521C19.8476 21.1666 19.5127 21.4964 19.1982 21.8668C18.6858 22.4147 18.082 22.6734 17.2906 22.6734C17.2145 22.6734 17.1333 22.6734 17.0572 22.6684C15.5504 22.572 14.1502 21.9834 13.1 21.4812C10.2285 20.0911 7.70702 18.1175 5.61172 15.6164C3.8817 13.5312 2.72498 11.6034 1.9589 9.53343C1.48708 8.27016 1.31458 7.28593 1.39068 6.3575C1.44142 5.76392 1.66972 5.27181 2.09081 4.85072L3.82082 3.1207C4.06942 2.88733 4.33323 2.76049 4.59197 2.76049C4.9116 2.76049 5.17034 2.95328 5.33268 3.11563C5.33776 3.1207 5.34283 3.12577 5.3479 3.13085C5.65738 3.42003 5.95163 3.71936 6.26111 4.03898C6.41838 4.20133 6.58073 4.36367 6.74308 4.5311L8.12811 5.91612C8.66588 6.4539 8.66588 6.95109 8.12811 7.48886C7.98098 7.63599 7.83892 7.78312 7.6918 7.92517C7.26563 8.36148 6.85977 8.76735 6.41838 9.16307C6.40824 9.17322 6.39809 9.17829 6.39302 9.18844C5.95671 9.62475 6.03788 10.0509 6.1292 10.3401C6.13427 10.3553 6.13935 10.3705 6.14442 10.3857C6.50463 11.2584 7.01197 12.0803 7.78312 13.0594L7.78819 13.0645C9.18844 14.7894 10.6648 16.1339 12.2933 17.1638C12.5013 17.2957 12.7144 17.4022 12.9174 17.5037C13.1 17.595 13.2725 17.6812 13.4196 17.7726C13.4399 17.7827 13.4602 17.7979 13.4805 17.8081C13.653 17.8943 13.8153 17.9349 13.9828 17.9349C14.4039 17.9349 14.6677 17.6711 14.7539 17.5848L16.489 15.8498C16.6615 15.6773 16.9355 15.4693 17.2551 15.4693C17.5696 15.4693 17.8284 15.6671 17.9856 15.8396C17.9907 15.8447 17.9907 15.8447 17.9958 15.8498L20.7912 18.6452C21.3138 19.1627 21.3138 19.6954 20.7963 20.2331Z" fill="white"/>
<path d="M12.9733 5.71797C14.3025 5.94119 15.51 6.57029 16.4739 7.53423C17.4379 8.49817 18.0619 9.70563 18.2902 11.0348C18.346 11.3697 18.6352 11.6031 18.9649 11.6031C19.0055 11.6031 19.041 11.598 19.0816 11.5929C19.4571 11.532 19.7057 11.1769 19.6448 10.8015C19.3708 9.19322 18.6098 7.72702 17.448 6.56522C16.2862 5.40342 14.82 4.64241 13.2118 4.36845C12.8363 4.30757 12.4863 4.55617 12.4203 4.92652C12.3544 5.29688 12.5979 5.65709 12.9733 5.71797Z" fill="white"/>
<path d="M23.9925 10.6036C23.5409 7.95532 22.2929 5.54548 20.3752 3.62775C18.4574 1.71002 16.0476 0.461971 13.3993 0.0104417C13.0289 -0.0555119 12.6789 0.198156 12.6129 0.568511C12.552 0.94394 12.8006 1.294 13.1761 1.35996C15.5403 1.76075 17.6964 2.88196 19.4112 4.59169C21.126 6.30648 22.2422 8.46266 22.643 10.8268C22.6988 11.1617 22.9879 11.3951 23.3177 11.3951C23.3583 11.3951 23.3938 11.39 23.4344 11.3849C23.8048 11.3291 24.0584 10.974 23.9925 10.6036Z" fill="white"/>
</svg>
