<svg width="23" height="23" viewBox="0 0 23 23" fill="none" xmlns="http://www.w3.org/2000/svg">
<path d="M11.5 0C6.66987 0 2.74023 3.92963 2.74023 8.75977C2.74023 11.8779 3.68876 13.1283 8.2468 19.1372C9.03801 20.1802 9.93483 21.3624 10.9609 22.7305C11.0882 22.9001 11.2879 23 11.5 23C11.7122 23 11.9118 22.9001 12.0391 22.7304C13.0592 21.3697 13.9521 20.192 14.7399 19.1529C19.3089 13.1266 20.2598 11.8725 20.2598 8.75977C20.2598 3.92963 16.3301 0 11.5 0ZM13.6661 18.3387C13.019 19.1921 12.3012 20.1389 11.4999 21.2042C10.693 20.1321 9.97113 19.1804 9.32048 18.3226C4.88678 12.4778 4.08789 11.4246 4.08789 8.75977C4.08789 4.67273 7.41296 1.34766 11.5 1.34766C15.587 1.34766 18.9121 4.67273 18.9121 8.75977C18.9121 11.4194 18.1112 12.4758 13.6661 18.3387Z" fill="white"/>
<path d="M11.5 4.04297C8.89916 4.04297 6.7832 6.15892 6.7832 8.75977C6.7832 11.3606 8.89916 13.4766 11.5 13.4766C14.1008 13.4766 16.2168 11.3606 16.2168 8.75977C16.2168 6.15892 14.1008 4.04297 11.5 4.04297ZM11.5 12.1289C9.64226 12.1289 8.13086 10.6175 8.13086 8.75977C8.13086 6.90202 9.64226 5.39062 11.5 5.39062C13.3577 5.39062 14.8691 6.90202 14.8691 8.75977C14.8691 10.6175 13.3577 12.1289 11.5 12.1289Z" fill="white"/>
</svg>
