<svg width="96" height="64" viewBox="0 0 96 64" fill="none" xmlns="http://www.w3.org/2000/svg">
<g clip-path="url(#clip0)">
<path d="M95.6885 48.189H95.7196L90.5801 17.6693C88.9915 6.96062 82.2634 0.157471 72.5451 0.157471C67.2498 0.157471 62.4841 2.45668 59.1823 6.14172H37.0357C33.7339 2.45668 28.9682 0.157471 23.6729 0.157471C15.0759 0.157471 7.91172 6.20472 6.07395 14.3307V14.4252C5.94936 15.0236 5.82477 15.622 5.76247 16.252L0.404909 48.063C0.280315 48.7874 0.218018 49.5118 0.218018 50.2677C0.218018 57.7638 6.2297 63.8425 13.6431 63.8425C19.2498 63.8425 22.7385 61.0709 26.0402 55.4646L31.3978 46.0787C32.706 47.1811 34.388 47.811 36.2258 47.811C40.4309 47.811 43.8261 44.3779 43.8261 40.126C43.8261 39.7165 43.7949 39.3071 43.7326 38.8976H52.1739C52.1116 39.3071 52.0804 39.7165 52.0804 40.126C52.0804 44.3779 55.4756 47.622 59.6807 47.811C61.8923 47.9055 64.9137 46.4567 64.9137 46.4567L70.1155 55.559C73.1058 60.5669 76.9059 63.811 82.4815 63.811C89.8948 63.811 95.9065 57.7323 95.9065 50.2362C95.8442 49.5748 95.7819 48.8819 95.6885 48.189Z" stroke="white" stroke-miterlimit="10"/>
<path d="M35.7898 45.5433C39.2304 45.5433 42.0195 42.7231 42.0195 39.2441C42.0195 35.7651 39.2304 32.9449 35.7898 32.9449C32.3492 32.9449 29.5601 35.7651 29.5601 39.2441C29.5601 42.7231 32.3492 45.5433 35.7898 45.5433Z" fill="white"/>
<path d="M60.3348 45.5433C63.7754 45.5433 66.5645 42.7231 66.5645 39.2441C66.5645 35.7651 63.7754 32.9449 60.3348 32.9449C56.8942 32.9449 54.1051 35.7651 54.1051 39.2441C54.1051 42.7231 56.8942 45.5433 60.3348 45.5433Z" fill="white"/>
<path d="M65.817 22.2992C67.7437 22.2992 69.3057 20.7199 69.3057 18.7716C69.3057 16.8234 67.7437 15.2441 65.817 15.2441C63.8903 15.2441 62.3284 16.8234 62.3284 18.7716C62.3284 20.7199 63.8903 22.2992 65.817 22.2992Z" fill="white"/>
<path d="M80.8929 22.2992C82.8197 22.2992 84.3816 20.7199 84.3816 18.7716C84.3816 16.8234 82.8197 15.2441 80.8929 15.2441C78.9662 15.2441 77.4043 16.8234 77.4043 18.7716C77.4043 20.7199 78.9662 22.2992 80.8929 22.2992Z" fill="white"/>
<path d="M73.2927 14.8032C75.2194 14.8032 76.7814 13.2238 76.7814 11.2756C76.7814 9.32739 75.2194 7.74805 73.2927 7.74805C71.366 7.74805 69.8041 9.32739 69.8041 11.2756C69.8041 13.2238 71.366 14.8032 73.2927 14.8032Z" fill="white"/>
<path d="M73.2927 30.1732C75.2194 30.1732 76.7814 28.5939 76.7814 26.6457C76.7814 24.6974 75.2194 23.1181 73.2927 23.1181C71.366 23.1181 69.8041 24.6974 69.8041 26.6457C69.8041 28.5939 71.366 30.1732 73.2927 30.1732Z" fill="white"/>
<path d="M30.4321 16.126H25.1369V10.7717C25.1369 10.1418 24.6385 9.63782 24.0155 9.63782H20.6826C20.0596 9.63782 19.5613 10.1418 19.5613 10.7717V16.126H14.266C13.643 16.126 13.1447 16.6299 13.1447 17.2599V20.5984C13.1447 21.2284 13.643 21.7323 14.266 21.7323H19.5613V27.0866C19.5613 27.7166 20.0596 28.2205 20.6826 28.2205H23.9844C24.6073 28.2205 25.1057 27.7166 25.1057 27.0866V21.7323H30.401C31.0239 21.7323 31.5223 21.2284 31.5223 20.5984V17.2599C31.5535 16.6299 31.0551 16.126 30.4321 16.126Z" fill="white"/>
</g>
<defs>
<clipPath id="clip0">
<rect width="96" height="64" fill="white"/>
</clipPath>
</defs>
</svg>
