<svg width="92" height="83" viewBox="0 0 92 83" fill="none" xmlns="http://www.w3.org/2000/svg">
<path d="M76.9283 29.3737C84.6998 29.3737 90.9999 23.042 90.9999 15.2314C90.9999 7.42083 84.6998 1.08911 76.9283 1.08911C69.1567 1.08911 62.8566 7.42083 62.8566 15.2314C62.8566 23.042 69.1567 29.3737 76.9283 29.3737Z" stroke="white" stroke-miterlimit="10"/>
<path d="M64.5 21.7582L47.8083 58.8184L56.5532 63.9489L78.7483 29.3292" stroke="white" stroke-miterlimit="10"/>
<path d="M55.1326 63.1458C55.1326 65.4656 53.2682 67.384 50.9156 67.384C48.5629 67.384 46.6985 65.5102 46.6985 63.1458C46.6985 61.6735 47.4531 60.3798 48.6073 59.6213" stroke="white" stroke-miterlimit="10"/>
<path d="M0.843506 64.395C0.843506 64.395 6.12594 66.7595 9.18886 63.9489C12.2074 61.1383 16.3801 51.6357 18.644 49.4051C21.2186 46.8622 26.5454 46.5945 30.8957 49.8512C35.2459 53.0633 35.7786 58.1938 33.8698 62.2982C31.961 66.4026 25.3025 73.5407 29.564 79.1619C33.2483 83.9355 40.262 82.5079 43.7244 76.1728C44.7898 74.2099 48.8293 67.3841 48.8293 67.3841" stroke="white" stroke-miterlimit="10"/>
<path d="M65.6088 38.2517C66.761 38.2517 67.6951 37.3129 67.6951 36.1549C67.6951 34.9969 66.761 34.0581 65.6088 34.0581C64.4565 34.0581 63.5225 34.9969 63.5225 36.1549C63.5225 37.3129 64.4565 38.2517 65.6088 38.2517Z" fill="white"/>
<path d="M61.9688 44.9437C63.121 44.9437 64.0551 44.005 64.0551 42.8469C64.0551 41.6889 63.121 40.7501 61.9688 40.7501C60.8165 40.7501 59.8824 41.6889 59.8824 42.8469C59.8824 44.005 60.8165 44.9437 61.9688 44.9437Z" fill="white"/>
<path d="M56.1093 57.4353L53.0019 55.6062C52.5137 55.3385 52.3805 54.7139 52.6468 54.2678L56.2424 48.022C56.5088 47.5312 57.1302 47.3974 57.5741 47.6651L60.6814 49.4942C61.1697 49.7619 61.3029 50.3865 61.0366 50.8326L57.441 57.0784C57.1746 57.5245 56.5532 57.703 56.1093 57.4353Z" fill="white"/>
<path d="M64.5 8.75818L89.0912 22.325" stroke="white" stroke-miterlimit="10"/>
<path d="M64.7654 8.98571C65.3868 7.64732 66.1859 6.39816 67.2068 5.32745C69.6927 2.65068 73.1995 1 77.1502 1C84.6078 1 90.6892 7.11197 90.6892 14.6516C90.6892 17.016 90.2429 20.3398 89 22.2582" fill="white"/>
</svg>
