<svg width="100" height="79" viewBox="0 0 100 79" fill="none" xmlns="http://www.w3.org/2000/svg">
<g clip-path="url(#clip0)">
<path d="M95.8304 78.6501H48.3669C46.2821 78.6501 44.5448 76.9008 44.5448 74.8016V44.0133C44.5448 41.9141 46.2821 40.1647 48.3669 40.1647H95.8304C97.9152 40.1647 99.6525 41.9141 99.6525 44.0133V74.8016C99.6525 76.9008 97.9847 78.6501 95.8304 78.6501Z" stroke="white" stroke-miterlimit="10"/>
<path d="M47.3246 38.9052C49.1314 38.7653 53.9959 38.6953 53.9959 38.6953C55.0383 36.5262 55.2468 34.0071 54.4128 31.4181C52.8145 26.5899 47.8805 23.861 43.5025 25.3304C39.1244 26.7998 36.8312 31.9779 38.4295 36.806C39.3329 39.535 41.0702 41.4943 43.3635 42.4739C43.5025 40.5846 45.5178 39.0452 47.3246 38.9052Z" fill="white"/>
<path d="M87.4219 59.8273C91.4517 59.8273 94.7186 57.0077 94.7186 53.5297C94.7186 50.0516 91.4517 47.2321 87.4219 47.2321C83.392 47.2321 80.1251 50.0516 80.1251 53.5297C80.1251 57.0077 83.392 59.8273 87.4219 59.8273Z" fill="white"/>
<path d="M50.7992 67.8742H54.9688" stroke="white" stroke-miterlimit="10"/>
<path d="M61.7791 67.8742H85.754" stroke="white" stroke-miterlimit="10" stroke-dasharray="9.83 9.83"/>
<path d="M89.1592 67.8742H93.3288" stroke="white" stroke-miterlimit="10"/>
<path d="M15.0104 70.0434L14.8714 69.6935L0 25.0505L74.0792 0L74.2182 0.349867L87.0744 38.7653H86.3099L73.6623 0.909654L0.903405 25.5403L15.4274 69.1337L42.738 59.8972V60.597L15.0104 70.0434Z" fill="white"/>
<path d="M24.1834 59.1276L24.1139 58.7077C24.0445 58.078 23.9055 57.5182 23.558 56.7485C22.7241 54.7892 20.7783 53.8096 18.902 54.4393C18.5545 54.5793 18.2071 54.7192 17.9291 54.9292L17.5816 55.279L10.5629 34.287H11.0493C11.3968 34.287 11.8137 34.217 12.1612 34.0771C14.0375 33.4473 15.0104 31.4181 14.4545 29.3889V29.3189C14.3155 28.7591 14.1765 28.4092 13.8985 27.7795L13.7595 27.4296L65.6706 9.86627L65.6011 10.4261C65.5316 10.9858 65.6011 11.5456 65.7401 12.0354C66.018 12.9451 66.713 13.7148 67.5469 14.1347C68.4503 14.5545 69.4232 14.6245 70.3266 14.3446C70.6741 14.2046 70.952 14.0647 71.2995 13.8548L71.647 13.5749L78.6657 34.4969H78.1793C77.8318 34.4969 77.4843 34.5669 77.1369 34.7068C75.3996 35.2666 74.7046 36.4562 74.7046 38.8353H74.0097C74.0097 36.946 74.3572 34.9168 76.9284 34.0771C77.2064 34.0071 77.4843 33.9371 77.6928 33.8672L71.2995 14.6944C71.091 14.8344 70.813 14.9743 70.5351 15.0443C69.4232 15.3942 68.2418 15.3242 67.1994 14.8344C66.157 14.3446 65.3926 13.4349 65.0451 12.3153C64.9062 11.8955 64.8367 11.4057 64.8367 10.9159L14.6629 27.8494C14.8714 28.3393 14.9409 28.6891 15.0799 29.109V29.1789C15.7748 31.558 14.5934 33.9371 12.3697 34.7068C12.0917 34.7768 11.8137 34.8468 11.5358 34.9168L17.9291 54.1595C18.2071 54.0195 18.4155 53.8796 18.6935 53.8096C20.8478 53.0399 23.141 54.2294 24.1834 56.5386C24.4614 57.1683 24.6004 57.7281 24.6699 58.2179L42.738 52.1302V52.8999L24.1834 59.1276Z" fill="white"/>
<path d="M62.5404 30.0599L65.8999 28.9229L64.7707 25.5402L61.4113 26.6772L62.5404 30.0599Z" fill="white"/>
<path d="M28.2412 42.4318L31.6007 41.2948L30.4715 37.9121L27.1121 39.049L28.2412 42.4318Z" fill="white"/>
</g>
<defs>
<clipPath id="clip0">
<rect width="100" height="79" fill="white"/>
</clipPath>
</defs>
</svg>
