<svg width="61" height="90" viewBox="0 0 61 90" fill="none" xmlns="http://www.w3.org/2000/svg">
<path d="M57.2837 47.4774C56.6587 47.2765 56.7282 47.0086 56.5199 45.1333C56.3116 43.2581 55.8255 39.5076 55.4783 39.3402C55.1311 39.1727 55.2005 38.6704 54.8533 36.7282C54.5061 34.786 52.8743 32.7768 52.3535 32.241C51.8327 31.7053 52.5966 32.3415 52.5271 31.7387C52.4577 31.136 53.1521 27.419 53.6729 25.6777C54.1589 23.9364 55.0616 22.8983 55.0616 22.8983C55.0616 22.8983 55.0617 22.8983 54.645 24.2713C54.2284 25.6442 53.1174 31.5378 53.1174 31.7387C53.1174 31.9397 54.6797 34.0828 55.7908 35.8911C56.9365 37.6993 57.6309 44.4301 57.6309 44.4301C57.6309 44.4301 58.0822 43.9278 58.3253 43.2246C58.5683 42.5214 58.603 41.8516 58.9502 39.0723C59.2974 36.2929 63.2554 23.4341 56.3463 13.6896C46.972 0.462426 30.3414 0.964722 30.3414 0.964722C30.3414 0.964722 13.0511 -0.207302 4.33655 13.6896C-1.94767 23.8694 1.45483 36.3599 1.80203 39.1058C2.14922 41.8517 2.18394 42.5549 2.42698 43.2581C2.67001 43.9613 3.12137 44.4636 3.12137 44.4636C3.12137 44.4636 3.81576 37.7328 4.9615 35.9246C6.10724 34.1163 7.63489 31.9732 7.63489 31.7722C7.63489 31.5713 6.52387 25.6777 6.10724 24.3048C5.69061 22.9318 5.69061 22.9318 5.69061 22.9318C5.69061 22.9318 6.59331 23.9699 7.07938 25.7112C7.56546 27.4525 8.29456 31.1695 8.22513 31.7722C8.15569 32.375 8.91951 31.7387 8.39872 32.2745C7.87793 32.8103 6.2114 34.853 5.89892 36.7617C5.58645 38.6704 5.62117 39.2062 5.27397 39.3737C4.92678 39.5411 4.44071 43.2581 4.23239 45.1668C4.02407 47.042 4.09351 47.3099 3.46856 47.5109C2.84361 47.7118 1.07292 47.9797 1.14236 49.1517C1.17708 50.3237 2.91305 54.5095 3.19081 55.715C3.46856 56.9205 6.83635 59.566 7.63489 60.0013C8.43344 60.4366 11.8012 61.1398 13.3983 61.2738C14.9954 61.4077 16.5578 60.4701 16.8355 62.4458C17.0786 64.4215 16.8355 66.3302 16.8355 67.0669C16.8355 67.8036 16.4536 71.0853 16.4536 70.7169C16.4536 70.3486 15.4121 68.8417 14.5441 68.2055C13.7108 67.5692 13.1206 67.0334 13.0511 66.1628C12.9817 65.2921 13.1206 62.6802 12.8775 62.3119C12.6345 61.9435 8.91951 61.9435 8.64176 62.044C8.39872 62.1779 8.57232 66.6986 8.39872 67.0334C8.22513 67.3683 7.70433 70.0137 8.78064 71.4202C9.85694 72.8266 11.3846 74.4674 12.322 77.7156C13.2594 80.9638 17.9813 87.0583 21.9046 88.4313C25.8279 89.8042 30.3761 89.2349 30.3761 89.2349C30.3761 89.2349 34.9244 89.8042 38.8477 88.4313C42.771 87.0583 47.4581 80.9303 48.4302 77.7156C49.4024 74.5009 50.8953 72.8601 51.9716 71.4202C53.0479 69.9802 52.5271 67.3683 52.3535 67.0334C52.1799 66.6986 52.3535 62.1779 52.1105 62.044C51.8675 61.91 48.1525 61.91 47.8747 62.3119C47.6317 62.6802 47.7358 65.2921 47.7011 66.1628C47.6664 67.0334 47.0762 67.6027 46.2082 68.2055C45.3749 68.8417 44.2986 70.3486 44.2986 70.7169C44.2986 71.0853 43.9167 67.7701 43.9167 67.0669C43.9167 66.3637 43.6737 64.4215 43.9167 62.4458C44.1598 60.4701 45.7568 61.4077 47.3539 61.2738C48.951 61.1398 52.3188 60.4366 53.1174 60.0013C53.9159 59.566 57.249 56.954 57.5615 55.715C57.8392 54.5095 59.5752 50.3237 59.6099 49.1517C59.6446 47.9797 57.9086 47.6783 57.2837 47.4774Z" stroke="white" stroke-miterlimit="10"/>
<path d="M18.7104 37.6323C18.7104 37.6323 24.5086 40.0433 25.4807 41.7176C26.4529 43.3919 25.7585 47.5777 24.2655 49.3525C22.7726 51.1273 17.0786 53.7727 15.6898 53.9736C14.3011 54.208 10.6555 54.3085 9.61393 53.3039C8.57235 52.2993 7.28772 51.0268 7.11413 47.6112C6.94053 44.1956 7.28772 42.3204 7.80852 41.5837C8.32931 40.847 9.54449 39.0052 11.1069 38.8043C12.6692 38.6034 14.4052 38.369 15.794 37.8667C17.1828 37.3644 18.7104 37.6323 18.7104 37.6323Z" fill="white"/>
<path d="M43.2917 37.2974C43.2917 37.2974 44.5069 38.3355 46.6942 38.4695C48.8816 38.6034 50.062 38.2351 51.2772 40.1438C52.4924 42.0525 54.0895 43.124 53.2909 47.3768C52.4924 51.6296 51.0342 53.6722 49.7148 53.8396C48.3955 54.0071 44.5069 54.3754 42.2502 52.969C39.9934 51.5626 39.1601 52.1653 37.3547 50.2566C35.5493 48.3479 34.0564 45.4011 34.3689 43.5929C34.6813 41.7846 36.2437 40.5456 37.3547 40.0433C38.4657 39.541 40.4448 38.6034 41.3127 37.9337C42.7015 36.8621 43.2917 37.2974 43.2917 37.2974Z" fill="white"/>
<path d="M29.3346 49.7543C29.8207 50.2566 30.1679 52.3327 29.7165 55.8824C29.2651 59.4655 28.5708 63.216 27.3556 63.149C26.1057 63.0486 23.1892 60.537 24.2656 56.6191C25.3419 52.7011 28.1888 50.2231 28.536 49.8882C29.0568 49.3859 29.3346 49.7543 29.3346 49.7543Z" fill="white"/>
<path d="M30.8275 49.6203C30.8275 49.6203 31.9038 49.1515 34.2994 52.7011C36.695 56.2506 36.452 58.8625 35.8618 60.1685C35.2716 61.4745 34.2647 63.3497 33.1189 63.1488C31.9732 62.9479 31.2441 59.2644 30.8275 55.5474C30.0984 49.118 30.8275 49.6203 30.8275 49.6203Z" fill="white"/>
<path d="M16.8702 66.5646C16.8702 66.5646 17.8077 65.8949 18.259 66.3302C18.7104 66.7655 18.5715 67.1004 19.0923 67.3013C19.6131 67.5357 20.3075 67.7366 20.5505 68.0715C20.7935 68.4063 20.6547 68.6742 21.0019 68.7077C21.349 68.7412 21.5921 69.0091 22.0087 68.8416C22.4254 68.6742 22.5295 68.2724 22.9809 68.4733C23.4322 68.6742 23.7794 69.6118 24.1613 69.9467C24.5432 70.2815 24.6821 69.8797 25.064 69.6453C25.4459 69.4109 25.689 69.21 26.0362 69.4444C26.3487 69.6788 26.3487 69.8797 26.8347 70.0806C27.3208 70.2815 27.3902 70.315 27.668 69.9467C27.9457 69.5783 28.0499 69.3439 28.4665 69.4109C28.8832 69.4779 29.2651 69.7792 29.4734 70.2145C29.7164 70.6499 29.8206 71.0517 30.0984 70.9512C30.3761 70.8508 30.6886 69.5783 31.7302 69.5783C32.5634 69.5783 33.0148 70.6499 33.2925 70.6499C33.5703 70.6499 33.7786 69.4444 34.5077 69.3439C35.4104 69.2435 35.4799 70.4489 35.7229 70.315C35.9659 70.1811 36.452 68.9421 36.9728 68.6407C37.4936 68.3393 37.7019 68.6072 37.8755 68.7412C38.0491 68.8751 38.1533 68.9756 38.5005 69.0091C38.8824 69.0425 38.9865 68.5737 39.3684 68.5737C39.7504 68.5737 39.8892 68.7747 39.9587 68.5068C40.0281 68.2389 39.9587 67.6027 40.4448 67.4017C40.8961 67.2008 41.0697 67.5357 41.3127 67.3013C41.5558 67.0669 41.5211 66.4641 41.8335 66.2967C42.146 66.1293 42.3543 65.9619 43.1529 66.0623C43.9514 66.1628 43.9514 66.2297 43.9514 66.2297" stroke="white" stroke-miterlimit="10"/>
<path d="M16.6967 68.3393C17.148 68.5402 17.5646 68.6407 17.8771 68.5737C18.1896 68.5067 18.0854 69.1095 18.3285 69.4443C18.5715 69.7792 18.7451 69.9801 19.0576 70.0471C19.4048 70.1141 19.5784 69.8797 19.7172 69.9466C19.8561 70.0136 19.6131 70.8173 19.8214 71.1187C20.0297 71.42 19.9256 71.7549 20.4464 71.7884C20.9671 71.7884 21.2449 71.8553 21.3143 71.9893C21.3838 72.1232 21.3143 72.5586 21.4185 72.8264C21.5227 73.0943 21.5921 73.3957 21.9393 73.6636C22.2865 73.9315 22.4601 74.0319 22.7726 74.0319C23.085 74.0319 23.0503 73.898 23.2586 74.0319C23.4669 74.1659 23.1892 74.6347 24.1613 74.8021C25.1335 74.9695 26.2098 75.0365 26.3834 74.8356C26.557 74.6347 26.5917 74.5342 26.6959 74.6347C26.8 74.7351 26.7306 75.1035 27.5291 75.204C28.3277 75.3044 29.5428 75.3379 29.7164 75.204C29.89 75.07 29.9942 74.8356 30.1678 74.9026C30.3414 74.9695 30.2025 75.3044 31.0011 75.3044C31.7996 75.3044 33.2578 75.3714 33.5009 74.9695C33.7439 74.5677 34.23 74.7686 34.8896 74.7686C35.5493 74.7686 36.5909 74.8021 36.8339 74.2998C37.077 73.7975 37.4589 74.0319 37.9797 73.7975C38.5005 73.5631 38.9518 72.5251 38.9865 72.1232C39.0213 71.7214 39.2643 71.6879 39.6462 71.6209C40.0281 71.554 40.4448 71.2526 40.5489 70.9177C40.6531 70.5829 40.4448 70.4154 41.0003 70.2145C41.5558 70.0136 41.8335 69.6788 41.9724 69.2769C42.1113 68.8751 41.9724 68.6742 42.3543 68.6072C42.7362 68.5402 42.9098 68.5402 43.257 68.3393C43.6042 68.1384 43.9514 67.5356 43.9514 67.5356" stroke="white" stroke-miterlimit="10"/>
<path d="M16.5579 69.7122C16.5579 69.7122 16.662 70.7838 17.1481 71.0517C17.4258 71.2191 17.6689 71.1521 17.8425 71.0852C17.8772 71.0517 17.9119 71.1186 17.9119 71.1521C17.8425 71.3196 17.7383 71.5205 17.8772 71.7884C18.1202 72.2237 18.0508 72.4246 18.3286 72.659C18.6063 72.8934 18.8146 73.0943 19.0577 73.0943C19.3007 73.0943 19.4049 73.1278 19.4743 73.4292C19.5437 73.7306 19.4049 74.2999 19.8562 74.6012C20.3076 74.9026 20.5853 74.8022 20.8631 74.9026C21.1408 75.0031 21.0714 75.338 21.3144 75.7733C21.5575 76.2086 21.4533 76.2421 21.8699 76.4095C22.2866 76.577 22.7379 76.51 22.9462 76.6439C23.1546 76.7779 23.2934 76.9118 23.4323 77.3806C23.5712 77.8495 23.9184 78.4857 24.1267 78.6531C24.335 78.8206 24.7517 78.9545 24.9947 78.6531C25.2377 78.3517 25.2377 78.1843 25.4808 78.3852C25.7238 78.5862 25.8627 78.8875 26.1404 79.1889C26.4182 79.4903 26.7307 79.9591 27.1473 79.3229C27.5639 78.6866 27.5987 78.6866 27.8417 78.6866C28.0847 78.7201 28.2236 79.3898 28.3625 79.6242C28.5361 79.8586 28.7791 80.0596 29.0569 80.0596C29.3346 80.0596 29.6124 79.1554 29.9596 79.1219C30.3068 79.0885 30.4457 79.5238 30.7234 79.7247C31.0012 79.9256 31.1748 80.0596 31.3484 80.0261C31.5567 80.0261 32.1816 79.3564 32.3899 78.9545C32.5983 78.5527 32.7719 78.6531 32.9802 78.8875C33.1885 79.1219 33.1885 79.4568 33.5704 79.4903C33.9523 79.5238 34.2301 79.2224 34.4731 78.7536C34.7161 78.2848 34.7856 78.0839 35.0286 78.1173C35.2717 78.1508 35.1675 78.3518 35.6189 78.6196C36.0702 78.8875 36.1049 78.854 36.348 78.5192C36.591 78.1843 36.6257 77.0458 37.1118 76.8114C37.5979 76.577 37.5631 76.7109 37.9798 76.5435C38.3964 76.376 38.6047 76.4765 38.813 76.1751C39.0214 75.8737 39.0214 75.204 39.438 74.9696C39.8546 74.7352 40.2365 74.8357 40.5837 74.5678C40.9309 74.2999 41.0351 73.7976 41.0698 73.5297C41.1045 73.2618 41.2781 73.2953 41.6253 73.1278C41.9725 72.9604 42.1461 72.726 42.3197 72.1232C42.4933 71.5205 42.4239 71.487 42.528 71.353C42.6322 71.2191 43.1183 71.2526 43.2919 70.9847C43.4655 70.7168 43.5696 70.4489 43.5696 70.2145C43.5696 69.9801 43.4307 69.7122 43.5696 69.4778C43.7085 69.2434 44.2293 68.6406 44.2293 68.6406" stroke="white" stroke-miterlimit="10"/>
<path d="M18.9882 67.2343C18.9882 67.2343 18.5716 67.6696 18.4327 68.0379C18.2939 68.4063 18.1897 69.009 18.1897 69.009" stroke="white" stroke-miterlimit="10"/>
<path d="M20.7242 68.4062C20.7242 68.4062 20.6547 68.7076 20.4117 69.009C20.1686 69.3104 19.6478 69.9467 19.6478 69.9467" stroke="white" stroke-miterlimit="10"/>
<path d="M21.9393 68.942C21.9393 68.942 21.731 69.7457 21.6615 70.114C21.5921 70.5159 21.3143 71.3196 21.3491 71.487C21.3838 71.6544 21.4185 72.1567 21.4185 72.1567" stroke="white" stroke-miterlimit="10"/>
<path d="M24.5432 70.047C24.5432 70.047 24.5085 70.3819 24.3349 71.0851C24.1613 71.7884 23.9877 72.3576 23.8141 72.659C23.6405 72.9604 23.1198 73.9985 23.1198 73.9985" stroke="white" stroke-miterlimit="10"/>
<path d="M26.9736 70.1476C26.9736 70.1476 26.9042 71.1522 26.8 71.7215C26.6959 72.2908 26.6959 72.4917 26.6959 72.8265C26.6959 73.1614 26.6611 73.5967 26.6959 73.8312C26.7306 74.0656 26.6959 74.5679 26.6959 74.5679" stroke="white" stroke-miterlimit="10"/>
<path d="M29.9248 70.9512C29.9248 70.9512 29.9595 72.1567 30.029 72.7929C30.0984 73.4291 30.0984 73.7305 30.0984 74.0318C30.0984 74.3332 29.9942 74.9025 29.9942 74.9025" stroke="white" stroke-miterlimit="10"/>
<path d="M33.3273 70.5829C33.3273 70.5829 33.3273 71.554 33.4314 72.1567C33.5356 72.7595 33.5356 72.7595 33.5703 73.0943C33.605 73.3957 33.5703 73.7641 33.5356 73.8645C33.5356 73.965 33.5009 74.5008 33.5009 74.5677C33.5356 74.6347 33.6397 74.8021 33.6397 74.8021" stroke="white" stroke-miterlimit="10"/>
<path d="M35.7924 70.2816C35.7924 70.2816 36.0007 70.9178 36.0701 71.4201C36.1395 71.9224 36.1048 72.1903 36.3131 72.4916C36.4867 72.8265 36.6951 73.1948 36.8339 73.4292C36.9728 73.6636 37.077 73.965 37.077 73.965" stroke="white" stroke-miterlimit="10"/>
<path d="M38.6047 69.076C38.6047 69.076 38.4658 69.1095 38.6047 69.8128C38.7436 70.516 38.7783 70.7504 38.8824 70.8843C38.9866 71.0183 38.9866 71.1857 39.056 71.5206C39.0908 71.822 39.056 71.9559 39.056 71.9559" stroke="white" stroke-miterlimit="10"/>
<path d="M39.8893 68.7076C39.8893 68.7076 39.9587 68.9755 40.2018 69.2434C40.4448 69.5113 40.4795 69.6788 40.5489 69.8797C40.6184 70.1141 40.6531 70.248 40.6531 70.248" stroke="white" stroke-miterlimit="10"/>
<path d="M41.417 67.2677C41.417 67.2677 41.66 67.5356 41.7989 67.8705C41.9378 68.2053 42.1114 68.7076 42.1114 68.7076" stroke="white" stroke-miterlimit="10"/>
<path d="M18.5367 69.8127C18.5367 69.8127 18.6409 70.0808 18.3979 70.3824C18.1548 70.684 17.9465 70.9856 17.9465 70.9856" stroke="white" stroke-miterlimit="10"/>
<path d="M19.995 71.42C19.995 71.42 19.9256 71.7884 19.752 72.0898C19.5784 72.3912 19.2312 73.0609 19.2312 73.0609" stroke="white" stroke-miterlimit="10"/>
<path d="M21.4532 72.9604C21.4532 72.9604 21.4185 73.2283 21.3143 73.6637C21.2102 74.099 21.0366 74.4673 20.9672 74.6013C20.8977 74.7352 20.7241 74.8691 20.7241 74.8691" stroke="white" stroke-miterlimit="10"/>
<path d="M23.0503 74.099C23.0503 74.099 23.085 74.1995 23.0503 74.5008C23.0156 74.8022 22.9808 75.0366 22.9461 75.204C22.9114 75.3715 22.842 75.5724 22.842 75.7063C22.8072 76.0747 22.5642 76.5435 22.5642 76.5435" stroke="white" stroke-miterlimit="10"/>
<path d="M25.3419 74.9696C25.3419 74.9696 25.3419 75.5724 25.3419 76.0747C25.3419 76.5769 25.3072 76.8448 25.2377 77.0792C25.1683 77.3471 25.203 77.749 25.203 77.9164C25.203 78.0838 25.203 78.2178 25.203 78.2178" stroke="white" stroke-miterlimit="10"/>
<path d="M27.8416 75.271C27.8416 75.271 27.8416 75.9072 27.7722 76.3091C27.6681 76.7109 27.6681 77.2802 27.7028 77.4811C27.7375 77.6821 27.8416 78.2514 27.8416 78.3183C27.8416 78.3853 27.8416 78.7537 27.8416 78.7537" stroke="white" stroke-miterlimit="10"/>
<path d="M30.0984 74.9696C30.0984 74.9696 30.0637 75.7063 30.0984 76.0412C30.1331 76.376 30.0637 76.5435 30.0984 77.0123C30.1331 77.4811 30.1678 77.9164 30.0984 78.2513C30.029 78.5862 29.9248 79.1219 29.9248 79.1219" stroke="white" stroke-miterlimit="10"/>
<path d="M32.4246 75.2375C32.4246 75.2375 32.5287 76.0077 32.5634 76.4096C32.5982 76.8114 32.6676 77.4142 32.6676 77.6151C32.6676 77.816 32.6329 78.7537 32.6329 78.7537" stroke="white" stroke-miterlimit="10"/>
<path d="M34.9244 74.7018C34.9244 74.7018 34.9244 75.1706 34.9244 75.9072C34.9244 76.6439 34.8896 76.9118 34.9244 77.1797C34.9591 77.4476 35.0285 78.1508 35.0285 78.1508" stroke="white" stroke-miterlimit="10"/>
<path d="M36.9034 74.1326C36.9034 74.1326 37.3548 74.7353 37.3548 74.9697C37.3548 75.2375 37.459 75.5389 37.4937 75.7733C37.5284 76.0077 37.4242 76.6774 37.4242 76.6774" stroke="white" stroke-miterlimit="10"/>
<path d="M38.8477 72.5251C38.8477 72.5251 38.8824 73.0274 39.056 73.5632C39.1949 74.1325 39.299 74.099 39.3685 74.4003C39.4379 74.6682 39.4726 74.9696 39.4726 74.9696" stroke="white" stroke-miterlimit="10"/>
<path d="M40.2712 71.2191C40.2712 71.2191 40.6184 71.6879 40.6532 72.1232C40.7226 72.5586 40.8268 73.0943 40.8268 73.1613C40.8268 73.2283 40.9309 73.5297 40.9309 73.5297" stroke="white" stroke-miterlimit="10"/>
<path d="M41.5906 69.8127C41.5906 69.8127 41.8683 69.9467 42.0767 70.2815C42.3197 70.6164 42.4586 70.6834 42.4933 70.9848C42.528 71.2861 42.528 71.2861 42.528 71.2861" stroke="white" stroke-miterlimit="10"/>
</svg>
