<svg width="101" height="92" viewBox="0 0 101 92" fill="none" xmlns="http://www.w3.org/2000/svg">
<path d="M74.172 61.9383C81.1741 53.654 76.6444 39.0748 64.0549 29.3747C51.4653 19.6746 35.5832 18.5268 28.5811 26.811C21.5791 35.0953 26.1087 49.6745 38.6983 59.3746C51.2879 69.0747 67.17 70.2225 74.172 61.9383Z" stroke="white" stroke-miterlimit="10"/>
<path d="M82.2425 70.7362C92.1059 59.0666 85.6891 38.5017 67.9102 24.8032C50.1313 11.1048 27.7228 9.46009 17.8593 21.1297C7.99589 32.7994 14.4127 53.3643 32.1916 67.0627C49.9705 80.7612 72.3791 82.4058 82.2425 70.7362Z" stroke="white" stroke-miterlimit="10"/>
<path d="M35.9851 38.175C35.9851 38.175 41.3701 39.2745 44.3767 40.4603C47.3833 41.646 49.2456 42.9611 49.2456 42.9611C49.2456 42.9611 49.4475 44.9876 49.8963 46.1949C50.345 47.4021 50.7938 48.2645 50.7938 48.2645C50.7938 48.2645 47.6525 47.4237 46.396 46.8201C45.1396 46.2164 43.4343 44.8151 43.4343 44.8151C43.4343 44.8151 44.9152 46.5398 47.0692 47.6177C49.2232 48.6957 51.3771 49.0837 51.3771 49.0837C51.3771 49.0837 51.624 49.9245 52.8804 51.0455C54.1369 52.145 55.4159 53.0936 55.4159 53.0936C55.4159 53.0936 49.2456 53.2876 44.2645 49.8167C40.7194 47.2943 40.1136 43.4138 38.5654 41.5166C36.9499 39.5548 35.9851 38.175 35.9851 38.175Z" fill="white"/>
<path d="M59.8809 55.0339C59.8809 55.0339 55.0793 52.878 52.6561 49.1268C50.2329 45.3756 49.7168 41.8616 51.0406 37.2265C52.3644 32.5913 50.7265 31.3409 50.7265 31.3409C50.7265 31.3409 54.1145 32.1602 58.5571 36.9678C62.9997 41.7753 63.987 44.966 63.4485 47.3375C62.91 49.7089 60.4867 53.029 60.4867 53.029C60.4867 53.029 56.9416 51.2827 55.1691 48.437C53.3965 45.5912 53.4863 43.7372 53.4863 43.7372C53.4863 43.7372 52.6785 46.2164 55.1242 49.5149C57.5699 52.8134 62.91 55.0124 63.1792 55.1202C63.4709 55.2495 64.3908 55.6376 63.8299 56.2628C63.2465 56.9311 59.8809 55.0339 59.8809 55.0339Z" fill="white"/>
<path d="M16.0267 24.2782C16.0267 24.2782 6.96626 39.2168 5.20074 46.6493C2.11593 59.5826 13.6791 72.3136 21.9247 78.8998C35.3116 89.5887 45.7883 92.0539 52.7728 90.3062C60.5721 88.356 79.1198 74.0613 80.6719 72.7183" stroke="white" stroke-miterlimit="10"/>
</svg>
